<?xml version="1.0" encoding="utf-8"?>
<!-- Generator: Adobe Illustrator 22.1.0, SVG Export Plug-In . SVG Version: 6.00 Build 0)  -->
<svg version="1.1" xmlns="http://www.w3.org/2000/svg" xmlns:xlink="http://www.w3.org/1999/xlink" x="0px" y="0px"
	 viewBox="0 0 48 48" style="enable-background:new 0 0 48 48;" xml:space="preserve">
<style type="text/css">
	.st0{opacity:0.85;}
	.st1{fill:#48A6CC;}
	.st2{fill:none;stroke:#000000;stroke-width:0.25;stroke-miterlimit:10;}
	.st3{fill:none;stroke:#80D4FF;stroke-width:2;stroke-miterlimit:10;}
	.st4{fill:none;stroke:#80D4FF;stroke-width:4;stroke-miterlimit:10;}
	.st5{fill:none;stroke:#80D4FF;stroke-width:5;stroke-miterlimit:10;}
	.st6{fill:none;stroke:#80D4FF;stroke-width:3;stroke-miterlimit:10;}
</style>
<g id="Ebene_1">
	<g class="st0">
		<circle class="st1" cx="24" cy="24" r="16"/>
	</g>
	<path class="st2" d="M10.3,32"/>
	<path class="st2" d="M24,8.2"/>
</g>
<g id="Ebene_2">
	<path class="st3" d="M22.8,12.1L13,19.2c-0.3,0.8-0.5,1.4-0.7,2.2L16.1,33c0.7,0.5,1.2,0.9,1.9,1.4H30c0.7-0.5,1.2-0.9,1.9-1.4
		l3.7-11.5c-0.3-0.8-0.5-1.4-0.7-2.2l-9.8-7.1C24.3,12.1,23.7,12.1,22.8,12.1z"/>
</g>
<g id="Ebene_3">
	<path class="st4" d="M8.4,13.1"/>
	<path class="st4" d="M8.8,35.5"/>
	<path class="st4" d="M11,37.9"/>
	<path class="st5" d="M6.8,32.1"/>
	<path class="st5" d="M8.4,34.9"/>
	<path class="st6" d="M23.3,44c-0.6,0-1.2-0.1-1.7-0.1c-0.6-0.1-1.2-0.2-1.7-0.3"/>
	<path class="st6" d="M18.5,43.3c-0.6-0.2-1.1-0.3-1.7-0.6c-0.5-0.2-1.1-0.4-1.6-0.7"/>
	<path class="st6" d="M10.1,38.4c-0.4-0.4-0.8-0.8-1.2-1.3c-0.4-0.4-0.7-0.9-1.1-1.4"/>
	<path class="st6" d="M14,41.4c-0.5-0.3-1-0.6-1.5-0.9c-0.5-0.3-0.9-0.7-1.4-1.1"/>
</g>
</svg>
