<?xml version="1.0" encoding="utf-8"?>
<!-- Generator: Adobe Illustrator 24.1.2, SVG Export Plug-In . SVG Version: 6.00 Build 0)  -->
<svg version="1.1" id="Ebene_1" xmlns="http://www.w3.org/2000/svg" xmlns:xlink="http://www.w3.org/1999/xlink" x="0px" y="0px"
	 viewBox="0 0 256 256" style="enable-background:new 0 0 256 256;" xml:space="preserve">
<style type="text/css">
	.st0{opacity:0.75;fill:none;stroke:#404040;stroke-width:0.5;stroke-miterlimit:10;enable-background:new    ;}
	.st1{opacity:0.75;}
	.st2{fill:none;stroke:#404040;stroke-width:0.5;stroke-miterlimit:10;}
</style>
<g id="Dots">
	<line class="st0" x1="0" y1="63.8" x2="0" y2="64.3"/>
	<line class="st0" x1="0" y1="191.8" x2="0" y2="192.3"/>
	<line class="st0" x1="64" y1="-0.3" x2="64" y2="0.3"/>
	<line class="st0" x1="64" y1="63.8" x2="64" y2="64.3"/>
	<line class="st0" x1="64" y1="127.8" x2="64" y2="128.3"/>
	<line class="st0" x1="64" y1="191.8" x2="64" y2="192.3"/>
	<line class="st0" x1="64" y1="255.8" x2="64" y2="256.3"/>
	<line class="st0" x1="128" y1="63.8" x2="128" y2="64.3"/>
	<line class="st0" x1="128" y1="191.8" x2="128" y2="192.3"/>
	<line class="st0" x1="192" y1="-0.3" x2="192" y2="0.3"/>
	<line class="st0" x1="192" y1="63.8" x2="192" y2="64.3"/>
	<line class="st0" x1="192" y1="127.8" x2="192" y2="128.3"/>
	<line class="st0" x1="192" y1="191.8" x2="192" y2="192.3"/>
	<line class="st0" x1="192" y1="255.8" x2="192" y2="256.3"/>
	<line class="st0" x1="256" y1="63.8" x2="256" y2="64.3"/>
	<line class="st0" x1="256" y1="191.8" x2="256" y2="192.3"/>
</g>
<g id="Crosses">
	<g class="st1">
		<g>
			<line class="st2" x1="127.9" y1="125.8" x2="127.9" y2="130.3"/>
		</g>
		<line class="st2" x1="125.8" y1="127.9" x2="130.3" y2="127.9"/>
	</g>
	<g class="st1">
		<g>
			<line class="st2" x1="0" y1="125.8" x2="0" y2="130.3"/>
		</g>
		<line class="st2" x1="-2.3" y1="127.9" x2="2.3" y2="127.9"/>
	</g>
	<g class="st1">
		<g>
			<line class="st2" x1="255.9" y1="125.8" x2="255.9" y2="130.3"/>
		</g>
		<line class="st2" x1="253.8" y1="127.9" x2="258.3" y2="127.9"/>
	</g>
	<g class="st1">
		<g>
			<line class="st2" x1="127.9" y1="-2.3" x2="127.9" y2="2.3"/>
		</g>
		<line class="st2" x1="125.8" y1="0" x2="130.3" y2="0"/>
	</g>
	<g class="st1">
		<g>
			<line class="st2" x1="0" y1="-2.3" x2="0" y2="2.3"/>
		</g>
		<line class="st2" x1="-2.3" y1="0" x2="2.3" y2="0"/>
	</g>
	<g class="st1">
		<g>
			<line class="st2" x1="255.9" y1="-2.3" x2="255.9" y2="2.3"/>
		</g>
		<line class="st2" x1="253.8" y1="0" x2="258.3" y2="0"/>
	</g>
	<g class="st1">
		<g>
			<line class="st2" x1="127.9" y1="253.8" x2="127.9" y2="258.3"/>
		</g>
		<line class="st2" x1="125.8" y1="255.9" x2="130.3" y2="255.9"/>
	</g>
	<g class="st1">
		<g>
			<line class="st2" x1="0" y1="253.8" x2="0" y2="258.3"/>
		</g>
		<line class="st2" x1="-2.3" y1="255.9" x2="2.3" y2="255.9"/>
	</g>
	<g class="st1">
		<g>
			<line class="st2" x1="255.9" y1="253.8" x2="255.9" y2="258.3"/>
		</g>
		<line class="st2" x1="253.8" y1="255.9" x2="258.3" y2="255.9"/>
	</g>
</g>
</svg>
