<?xml version="1.0" encoding="utf-8"?>
<!-- Generator: Adobe Illustrator 24.1.2, SVG Export Plug-In . SVG Version: 6.00 Build 0)  -->
<svg version="1.1" id="Ebene_1" xmlns="http://www.w3.org/2000/svg" xmlns:xlink="http://www.w3.org/1999/xlink" x="0px" y="0px"
	 viewBox="0 0 192 192" style="enable-background:new 0 0 192 192;" xml:space="preserve">
<style type="text/css">
	.st0{opacity:0.75;fill:none;stroke:#404040;stroke-width:0.5;stroke-miterlimit:10;enable-background:new    ;}
	.st1{opacity:0.75;}
	.st2{fill:none;stroke:#404040;stroke-width:0.5;stroke-miterlimit:10;}
</style>
<g id="Dots">
	<line class="st0" x1="0" y1="31.8" x2="0" y2="32.3"/>
	<line class="st0" x1="0" y1="143.8" x2="0" y2="144.3"/>
	<line class="st0" x1="32" y1="-0.3" x2="32" y2="0.3"/>
	<line class="st0" x1="32" y1="31.8" x2="32" y2="32.3"/>
	<line class="st0" x1="32" y1="95.8" x2="32" y2="96.3"/>
	<line class="st0" x1="32" y1="143.8" x2="32" y2="144.3"/>
	<line class="st0" x1="32" y1="191.8" x2="32" y2="192.3"/>
	<line class="st0" x1="96" y1="31.8" x2="96" y2="32.3"/>
	<line class="st0" x1="96" y1="143.8" x2="96" y2="144.3"/>
	<line class="st0" x1="144" y1="-0.3" x2="144" y2="0.3"/>
	<line class="st0" x1="144" y1="31.8" x2="144" y2="32.3"/>
	<line class="st0" x1="144" y1="95.8" x2="144" y2="96.3"/>
	<line class="st0" x1="144" y1="143.8" x2="144" y2="144.3"/>
	<line class="st0" x1="144" y1="191.8" x2="144" y2="192.3"/>
	<line class="st0" x1="192" y1="31.8" x2="192" y2="32.3"/>
	<line class="st0" x1="192" y1="143.8" x2="192" y2="144.3"/>
</g>
<g id="Crosses">
	<g class="st1">
		<g>
			<line class="st2" x1="95.9" y1="93.5" x2="95.9" y2="98.5"/>
		</g>
		<line class="st2" x1="93.5" y1="95.9" x2="98.5" y2="95.9"/>
	</g>
	<g class="st1">
		<g>
			<line class="st2" x1="0" y1="93.5" x2="0" y2="98.5"/>
		</g>
		<line class="st2" x1="-2.5" y1="95.9" x2="2.5" y2="95.9"/>
	</g>
	<g class="st1">
		<g>
			<line class="st2" x1="191.9" y1="93.5" x2="191.9" y2="98.5"/>
		</g>
		<line class="st2" x1="189.5" y1="95.9" x2="194.5" y2="95.9"/>
	</g>
	<g class="st1">
		<g>
			<line class="st2" x1="95.9" y1="-2.5" x2="95.9" y2="2.5"/>
		</g>
		<line class="st2" x1="93.5" y1="0" x2="98.5" y2="0"/>
	</g>
	<g class="st1">
		<g>
			<line class="st2" x1="0" y1="-2.5" x2="0" y2="2.5"/>
		</g>
		<line class="st2" x1="-2.5" y1="0" x2="2.5" y2="0"/>
	</g>
	<g class="st1">
		<g>
			<line class="st2" x1="191.9" y1="-2.5" x2="191.9" y2="2.5"/>
		</g>
		<line class="st2" x1="189.5" y1="0" x2="194.5" y2="0"/>
	</g>
	<g class="st1">
		<g>
			<line class="st2" x1="95.9" y1="189.5" x2="95.9" y2="194.5"/>
		</g>
		<line class="st2" x1="93.5" y1="191.9" x2="98.5" y2="191.9"/>
	</g>
	<g class="st1">
		<g>
			<line class="st2" x1="0" y1="189.5" x2="0" y2="194.5"/>
		</g>
		<line class="st2" x1="-2.5" y1="191.9" x2="2.5" y2="191.9"/>
	</g>
	<g class="st1">
		<g>
			<line class="st2" x1="191.9" y1="189.5" x2="191.9" y2="194.5"/>
		</g>
		<line class="st2" x1="189.5" y1="191.9" x2="194.5" y2="191.9"/>
	</g>
</g>
</svg>
