<?xml version="1.0" encoding="utf-8"?>
<!-- Generator: Adobe Illustrator 22.1.0, SVG Export Plug-In . SVG Version: 6.00 Build 0)  -->
<svg version="1.1" id="Ebene_1" xmlns="http://www.w3.org/2000/svg" xmlns:xlink="http://www.w3.org/1999/xlink" x="0px" y="0px"
	 viewBox="0 0 48 48" style="enable-background:new 0 0 48 48;" xml:space="preserve">
<style type="text/css">
	.st0{fill:none;stroke:#000000;stroke-width:0.25;stroke-miterlimit:10;}
	.st1{fill:none;stroke:#D8D8D8;stroke-width:3;stroke-miterlimit:10;}
	.st2{display:none;}
	.st3{display:inline;fill:none;stroke:#80D4FF;stroke-width:4;stroke-miterlimit:10;}
	.st4{display:inline;fill:none;stroke:#80D4FF;stroke-width:5;stroke-miterlimit:10;}
	.st5{display:inline;fill:none;stroke:#80D4FF;stroke-width:3;stroke-miterlimit:10;}
</style>
<g id="Ebene_1_1_">
	<path class="st0" d="M10.3,32"/>
	<path class="st0" d="M24,8.2"/>
</g>
<g id="_x31_">
	<path class="st1" d="M28.1,43.6c-0.5,0.1-1.1,0.2-1.7,0.3c-0.5,0-1.1,0.1-1.7,0.1"/>
	<path class="st1" d="M28.1,43.6c-0.5,0.1-1.1,0.2-1.7,0.3c-0.5,0-1.1,0.1-1.7,0.1"/>
</g>
<g id="_x32_" class="st2">
	<path class="st3" d="M8.4,13.1"/>
	<path class="st4" d="M6.8,32.1"/>
	<path class="st5" d="M23.3,44c-0.6,0-1.2-0.1-1.7-0.1c-0.6-0.1-1.2-0.2-1.7-0.3"/>
	<path class="st5" d="M18.5,43.3c-0.6-0.2-1.1-0.3-1.7-0.6c-0.5-0.2-1.1-0.4-1.6-0.7"/>
	<path class="st3" d="M8.4,13.1"/>
	<path class="st4" d="M6.8,32.1"/>
	<path class="st5" d="M23.3,44c-0.6,0-1.2-0.1-1.7-0.1c-0.6-0.1-1.2-0.2-1.7-0.3"/>
	<path class="st5" d="M18.5,43.3c-0.6-0.2-1.1-0.3-1.7-0.6c-0.5-0.2-1.1-0.4-1.6-0.7"/>
</g>
<g id="_x33_" class="st2">
	<path class="st3" d="M8.4,13.1"/>
	<path class="st4" d="M6.8,32.1"/>
	<path class="st5" d="M23.3,44c-0.6,0-1.2-0.1-1.7-0.1c-0.6-0.1-1.2-0.2-1.7-0.3"/>
	<path class="st5" d="M18.5,43.3c-0.6-0.2-1.1-0.3-1.7-0.6c-0.5-0.2-1.1-0.4-1.6-0.7"/>
	<path class="st5" d="M14,41.4c-0.5-0.3-1-0.6-1.5-0.9c-0.5-0.3-0.9-0.7-1.4-1.1"/>
</g>
<g id="_x34_" class="st2">
	<path class="st3" d="M8.4,13.1"/>
	<path class="st4" d="M6.8,32.1"/>
	<path class="st5" d="M23.3,44c-0.6,0-1.2-0.1-1.7-0.1c-0.6-0.1-1.2-0.2-1.7-0.3"/>
	<path class="st5" d="M18.5,43.3c-0.6-0.2-1.1-0.3-1.7-0.6c-0.5-0.2-1.1-0.4-1.6-0.7"/>
	<path class="st5" d="M14,41.4c-0.5-0.3-1-0.6-1.5-0.9c-0.5-0.3-0.9-0.7-1.4-1.1"/>
	<path class="st5" d="M10.1,38.4c-0.4-0.4-0.8-0.8-1.2-1.3c-0.4-0.4-0.7-0.9-1.1-1.4"/>
</g>
<g id="Ebene_4">
	<path class="st1" d="M42.2,32.2c-1.1,2.7-2.9,5.1-5.1,7s-4.8,3.3-7.6,4.1"/>
</g>
</svg>
