<?xml version="1.0" encoding="utf-8"?>
<!-- Generator: Adobe Illustrator 22.1.0, SVG Export Plug-In . SVG Version: 6.00 Build 0)  -->
<svg version="1.1" id="Ebene_1" xmlns="http://www.w3.org/2000/svg" xmlns:xlink="http://www.w3.org/1999/xlink" x="0px" y="0px"
	 viewBox="0 0 48 48" style="enable-background:new 0 0 48 48;" xml:space="preserve">
<style type="text/css">
	.st0{fill:none;stroke:#000000;stroke-width:0.25;stroke-miterlimit:10;}
	.st1{display:none;}
	.st2{fill:none;stroke:#D8D8D8;stroke-width:4;stroke-miterlimit:10;}
	.st3{fill:none;stroke:#D8D8D8;stroke-width:5;stroke-miterlimit:10;}
	.st4{fill:none;stroke:#D8D8D8;stroke-width:3;stroke-miterlimit:10;}
	.st5{display:inline;fill:none;stroke:#80D4FF;stroke-width:3;stroke-miterlimit:10;}
</style>
<g id="Ebene_1_1_">
	<path class="st0" d="M10.3,32"/>
	<path class="st0" d="M24,8.2"/>
</g>
<g id="Ebene_2_1_" class="st1">
</g>
<g id="Ebene_3">
	<path class="st2" d="M39.6,13.1"/>
	<path class="st3" d="M41.2,32.1"/>
	<path class="st4" d="M28.1,43.6c-0.5,0.1-1.1,0.2-1.7,0.3c-0.5,0-1.1,0.1-1.7,0.1"/>
	<path class="st4" d="M32.8,42c-0.5,0.3-1.1,0.5-1.6,0.7c-0.6,0.3-1.1,0.4-1.7,0.6"/>
	<path class="st4" d="M36.9,39.4c-0.5,0.4-0.9,0.8-1.4,1.1c-0.5,0.3-1,0.6-1.5,0.9"/>
</g>
<g id="Ebene_4" class="st1">
	<path class="st5" d="M26.7,33c-0.5,0-1.1,0-1.7,0s-1.2,0-1.7-0.1"/>
</g>
</svg>
