<?xml version="1.0" encoding="UTF-8"?>
<svg xmlns="http://www.w3.org/2000/svg" version="1.1" viewBox="0 0 24.9 23.4">
  <defs>
    <style>
      .cls-1 {
        fill: #e5a604;
      }

      .cls-2, .cls-3 {
        fill: none;
      }

      .cls-3 {
        stroke: #e5a604;
        stroke-miterlimit: 10;
      }
    </style>
  </defs>
  <!-- Generator: Adobe Illustrator 28.6.0, SVG Export Plug-In . SVG Version: 1.2.0 Build 709)  -->
  <g>
    <g id="Ebene_1">
      <g>
        <rect class="cls-2" x="8.9" y="8.2" width="7.2" height="20.8"/>
        <path class="cls-1" d="M12.5,15.7c.2,0,.4,0,.6.2.2.2.2.3.2.6s0,.4-.2.6c-.2.2-.3.2-.6.2s-.4,0-.6-.2c-.2-.2-.2-.3-.2-.6s0-.4.2-.6c.2-.2.3-.2.6-.2ZM13.1,8.9v5.5h-1v-5.5c-.1,0,1,0,1,0Z"/>
      </g>
      <polygon class="cls-3" points="12.5 2.8 2.6 19.9 22.3 19.9 12.5 2.8"/>
    </g>
  </g>
</svg>