<?xml version="1.0" encoding="utf-8"?>
<!-- Generator: Adobe Illustrator 26.5.0, SVG Export Plug-In . SVG Version: 6.00 Build 0)  -->
<svg version="1.1" id="Ebene_1" xmlns="http://www.w3.org/2000/svg" xmlns:xlink="http://www.w3.org/1999/xlink" x="0px" y="0px"
	 viewBox="0 0 32 32" style="enable-background:new 0 0 32 32;" xml:space="preserve">
<style type="text/css">
	.st0{opacity:0.75;}
	.st1{fill:#B3B3B3;}
	.st2{fill:#64D080;}
</style>
<g class="st0">
	<polygon points="2.2,8.1 2.2,23.9 16,31.9 29.8,23.9 29.8,8.1 16,0.1 	"/>
</g>
<g>
	<path class="st1" d="M16,2.1l12,6.9v13.9l-12,6.9L4,22.9V9.1L16,2.1 M16,1L3,8.5v15L16,31l13-7.5v-15L16,1L16,1z"/>
</g>
<g class="st0">
	<polygon class="st2" points="6,13.7 6,18.3 10,20.6 14,18.3 14,13.7 10,11.4 	"/>
</g>
<g class="st0">
	<polygon class="st2" points="12,6.7 12,11.3 16,13.6 20,11.3 20,6.7 16,4.4 	"/>
</g>
<g class="st0">
	<polygon class="st2" points="18,13.7 18,18.3 22,20.6 26,18.3 26,13.7 22,11.4 	"/>
</g>
<g class="st0">
	<polygon class="st2" points="12,20.7 12,25.3 16,27.6 20,25.3 20,20.7 16,18.4 	"/>
</g>
</svg>
