<?xml version="1.0" encoding="utf-8"?>
<!-- Generator: Adobe Illustrator 26.5.0, SVG Export Plug-In . SVG Version: 6.00 Build 0)  -->
<svg version="1.1" id="Ebene_1" xmlns="http://www.w3.org/2000/svg" xmlns:xlink="http://www.w3.org/1999/xlink" x="0px" y="0px"
	 viewBox="0 0 32 32" style="enable-background:new 0 0 32 32;" xml:space="preserve">
<style type="text/css">
	.st0{opacity:0.75;}
	.st1{fill:#B3B3B3;}
	.st2{fill:#36ABC6;}
</style>
<g class="st0">
	<polygon points="16,1.3 0.5,12.5 6.4,30.7 25.6,30.7 31.5,12.5 	"/>
</g>
<g>
	<path class="st1" d="M16,3.5l13.3,9.7l-5.1,15.7H7.8L2.7,13.1L16,3.5 M16,2.2L1.5,12.7l5.5,17H25l5.5-17L16,2.2L16,2.2z"/>
</g>
<g>
	<polygon class="st2" points="16,19.2 12,22.1 13.5,26.8 18.5,26.8 20,22.1 	"/>
</g>
<g>
	<polygon class="st2" points="18,17 21.1,21.2 26,19.6 26,14.4 21.1,12.8 	"/>
</g>
<g>
	<polygon class="st2" points="16,14.8 20,11.9 18.5,7.2 13.5,7.2 12,11.9 	"/>
</g>
<g>
	<polygon class="st2" points="14,17 10.9,12.8 6,14.4 6,19.6 10.9,21.2 	"/>
</g>
</svg>
