<?xml version="1.0" encoding="utf-8"?>
<!-- Generator: Adobe Illustrator 26.5.0, SVG Export Plug-In . SVG Version: 6.00 Build 0)  -->
<svg version="1.1" id="Ebene_1" xmlns="http://www.w3.org/2000/svg" xmlns:xlink="http://www.w3.org/1999/xlink" x="0px" y="0px"
	 viewBox="0 0 32 32" style="enable-background:new 0 0 32 32;" xml:space="preserve">
<style type="text/css">
	.st0{opacity:0.75;}
	.st1{fill:#B3B3B3;}
	.st2{fill:#36ABC6;}
</style>
<g class="st0">
	<polygon points="16,1.26 0.5,12.52 6.42,30.74 25.58,30.74 31.5,12.52 	"/>
</g>
<g>
	<path class="st1" d="M16,3.45l13.32,9.68l-5.09,15.66H7.77L2.68,13.13L16,3.45 M16,2.21L1.5,12.74l5.54,17.05h17.92l5.54-17.05
		L16,2.21L16,2.21z"/>
</g>
<g>
	<polygon class="st2" points="15.99,5.34 11.99,8.25 13.52,12.94 18.47,12.94 19.99,8.25 	"/>
</g>
<g>
	<polygon class="st2" points="20.79,19.3 16.79,22.2 18.32,26.9 23.26,26.9 24.79,22.2 	"/>
</g>
<g>
	<polygon class="st2" points="11.14,19.3 7.14,22.2 8.66,26.9 13.61,26.9 15.14,22.2 	"/>
</g>
<g>
	<polygon class="st2" points="23.43,10.66 19.43,13.56 20.95,18.26 25.9,18.26 27.43,13.56 	"/>
</g>
<g>
	<polygon class="st2" points="8.57,10.66 4.57,13.56 6.1,18.26 11.05,18.26 12.57,13.56 	"/>
</g>
</svg>
