<?xml version="1.0" encoding="utf-8"?>
<!-- Generator: Adobe Illustrator 26.5.0, SVG Export Plug-In . SVG Version: 6.00 Build 0)  -->
<svg version="1.1" id="Ebene_1" xmlns="http://www.w3.org/2000/svg" xmlns:xlink="http://www.w3.org/1999/xlink" x="0px" y="0px"
	 viewBox="0 0 32 32" style="enable-background:new 0 0 32 32;" xml:space="preserve">
<style type="text/css">
	.st0{opacity:0.75;}
	.st1{fill:#B3B3B3;}
	.st2{fill:#36ABC6;}
</style>
<g class="st0">
	<polygon points="16,1.26 0.5,12.52 6.42,30.74 25.58,30.74 31.5,12.52 	"/>
</g>
<g>
	<path class="st1" d="M16,3.45l13.32,9.68l-5.09,15.66H7.77L2.68,13.13L16,3.45 M16,2.21L1.5,12.74l5.54,17.05h17.92l5.54-17.05
		L16,2.21L16,2.21z"/>
</g>
<g>
	<polygon class="st2" points="16,18.75 12,21.66 13.53,26.36 18.47,26.36 20,21.66 	"/>
</g>
<g>
	<polygon class="st2" points="17.61,16.91 20.67,21.12 25.61,19.52 25.61,14.31 20.67,12.71 	"/>
</g>
<g>
	<polygon class="st2" points="16,15.08 20,12.17 18.47,7.47 13.53,7.47 12,12.17 	"/>
</g>
<g>
	<polygon class="st2" points="14.39,16.91 11.33,12.71 6.39,14.31 6.39,19.52 11.33,21.12 	"/>
</g>
</svg>
